<svg
          xmlns="http://www.w3.org/2000/svg"
          viewBox="0 0 512 512"
          id="ac"
        >
          <path
            fill="#3a98ff"
            d="M391 181c0-5.523-4.478-10-10-10H11c-5.523 0-10 4.477-10 10 0 5.522 4.477 10 10 10h370C386.522 191 391 186.522 391 181zM138.93 323.929l-10.001 9.999c-9.412 9.413-9.412 24.729.001 34.142 1.608 1.608 1.624 4.232-.001 5.855-9.565 9.592-9.261 24.881.003 34.147 1.615 1.615 1.617 4.236 0 5.854l-10.003 10.004c-3.905 3.905-3.905 10.236.001 14.142 3.903 3.905 10.237 3.905 14.142-.001l10.003-10.003c9.412-9.412 9.412-24.727-.005-34.143-1.614-1.614-1.614-4.241 0-5.855 9.351-9.324 9.518-24.628.002-34.142-1.615-1.614-1.615-4.242-.001-5.857l10-9.999c3.906-3.905 3.906-10.236.001-14.142C149.166 320.025 142.835 320.024 138.93 323.929zM198.93 323.929l-10.001 9.999c-9.412 9.413-9.412 24.729.001 34.142 1.608 1.608 1.624 4.232-.001 5.855-9.565 9.592-9.261 24.881.003 34.147 1.615 1.615 1.617 4.236 0 5.854l-10.003 10.004c-3.905 3.905-3.905 10.236.001 14.142 3.903 3.905 10.237 3.905 14.142-.001l10.003-10.003c9.412-9.412 9.412-24.727-.005-34.143-1.614-1.614-1.614-4.241 0-5.855 9.351-9.324 9.518-24.628.002-34.142-1.615-1.614-1.615-4.242-.001-5.857l10-9.999c3.906-3.905 3.906-10.236.001-14.142C209.166 320.025 202.835 320.024 198.93 323.929zM258.93 323.929l-10.001 9.999c-9.412 9.413-9.412 24.729.001 34.142 1.608 1.608 1.624 4.232-.001 5.855-9.564 9.592-9.261 24.881.003 34.147 1.615 1.615 1.617 4.236 0 5.854l-10.003 10.004c-3.905 3.905-3.905 10.236.001 14.142 3.903 3.905 10.237 3.905 14.142-.001l10.003-10.003c9.412-9.412 9.412-24.727-.005-34.143-1.614-1.614-1.614-4.241 0-5.855 9.351-9.324 9.518-24.628.002-34.142-1.615-1.614-1.615-4.242-.001-5.857l10-9.999c3.906-3.905 3.906-10.236.001-14.142C269.166 320.025 262.835 320.024 258.93 323.929zM318.93 323.929l-10.001 9.999c-9.412 9.413-9.412 24.729.001 34.142 1.608 1.608 1.624 4.232-.001 5.855-9.565 9.592-9.261 24.881.003 34.147 1.615 1.615 1.617 4.236 0 5.854l-10.003 10.004c-3.905 3.905-3.905 10.236.001 14.142 3.903 3.905 10.237 3.905 14.142-.001l10.003-10.003c9.412-9.412 9.412-24.727-.005-34.143-1.614-1.614-1.614-4.241 0-5.855 9.376-9.35 9.494-24.653.002-34.142-1.615-1.614-1.615-4.242-.001-5.857l10-9.999c3.906-3.905 3.906-10.236.001-14.142C329.167 320.025 322.836 320.024 318.93 323.929zM378.93 323.929l-10.001 9.999c-9.412 9.413-9.412 24.729.001 34.142 1.608 1.608 1.624 4.232-.001 5.855-9.565 9.592-9.261 24.881.003 34.147 1.615 1.615 1.617 4.236 0 5.854l-10.003 10.004c-3.905 3.905-3.905 10.236.001 14.142 3.903 3.905 10.237 3.905 14.142-.001l10.003-10.003c9.412-9.412 9.412-24.727-.005-34.143-1.614-1.614-1.614-4.241 0-5.855 9.351-9.324 9.518-24.628.002-34.142-1.615-1.614-1.615-4.242-.001-5.857l10-9.999c3.906-3.905 3.906-10.236.001-14.142C389.166 320.025 382.835 320.024 378.93 323.929z"
          ></path>
          <path
            fill="#283954"
            d="M471,71H41C18.944,71,1,88.944,1,111v150c0,22.056,17.944,40,40,40c25.571,0,406.742,0,430,0
			c22.056,0,40-17.944,40-40V111C511,88.944,493.056,71,471,71z M41,91h430c11.028,0,20,8.972,20,20H21C21,99.972,29.972,91,41,91z
			 M71,281v-30h370v30H71z M471,281h-10v-40c0-5.523-4.478-10-10-10H61c-5.523,0-10,4.477-10,10v40H41c-11.028,0-20-8.972-20-20V131
			h470v130C491,272.028,482.028,281,471,281z"
          ></path>
          <circle cx="421" cy="181.333" r="10" fill="#3a98ff"></circle>
          <circle cx="461" cy="181.333" r="10" fill="#3a98ff"></circle>
        </svg>