<svg
          xmlns="http://www.w3.org/2000/svg"
          viewBox="0 0 64 64"
          id="swimming"
        >
          <g>
            <path d="M38 30.75a1 1 0 0 1-.71.71 15.43 15.43 0 0 0-4.71 2.37A15.12 15.12 0 0 1 23 37a15.13 15.13 0 0 1-9.58-3.19l-.7-.46a1 1 0 0 1-.44-.74 1 1 0 0 1 .28-.81l12.88-12.88a1 1 0 0 1 1.42 0l10.85 10.86a1 1 0 0 1 .29.97zm6.87-12.53A6 6 0 1 1 43.12 14a6 6 0 0 1 1.75 4.22z"></path>
            <path d="m32.61 10.22-5.33 1.37a1 1 0 0 0-.7.95l.56 7a1 1 0 0 1-.29.79l-5 4.95a1 1 0 0 1-.7.29 1.07 1.07 0 0 1-.39-.07 1 1 0 0 1-.61-.93V10.7A5 5 0 0 1 24 5.86l7.11-1.77a3.2 3.2 0 0 1 3 .84 3.16 3.16 0 0 1-1.46 5.29zM59 48a15.15 15.15 0 0 1-9.56-3.17A13.29 13.29 0 0 0 41 42a13.34 13.34 0 0 0-8.45 2.83A15.1 15.1 0 0 1 23 48a15.15 15.15 0 0 1-9.56-3.17A13.29 13.29 0 0 0 5 42a1 1 0 0 1 0-2 15.1 15.1 0 0 1 9.55 3.17A13.34 13.34 0 0 0 23 46a13.29 13.29 0 0 0 8.44-2.83A15.15 15.15 0 0 1 41 40a15.1 15.1 0 0 1 9.55 3.17A13.34 13.34 0 0 0 59 46a1 1 0 0 1 0 2zm0 12a15.15 15.15 0 0 1-9.56-3.17A13.29 13.29 0 0 0 41 54a13.34 13.34 0 0 0-8.45 2.83A15.1 15.1 0 0 1 23 60a15.15 15.15 0 0 1-9.56-3.17A13.29 13.29 0 0 0 5 54a1 1 0 0 1 0-2 15.1 15.1 0 0 1 9.55 3.17A13.34 13.34 0 0 0 23 58a13.29 13.29 0 0 0 8.44-2.83A15.15 15.15 0 0 1 41 52a15.1 15.1 0 0 1 9.55 3.17A13.34 13.34 0 0 0 59 58a1 1 0 0 1 0 2zm0-23a15.15 15.15 0 0 1-9.56-3.17A13.29 13.29 0 0 0 41 31a13.34 13.34 0 0 0-8.45 2.83A15.1 15.1 0 0 1 23 37a15.15 15.15 0 0 1-9.56-3.17A13.29 13.29 0 0 0 5 31a1 1 0 0 1 0-2 15.1 15.1 0 0 1 9.55 3.17A13.34 13.34 0 0 0 23 35a13.29 13.29 0 0 0 8.44-2.83A15.15 15.15 0 0 1 41 29a15.1 15.1 0 0 1 9.55 3.17A13.34 13.34 0 0 0 59 35a1 1 0 0 1 0 2z"></path>
          </g>
        </svg>