<svg
          xmlns="http://www.w3.org/2000/svg"
          viewBox="0 0 128 128"
          id="tv"
        >
          <path
            fill="#505070"
            d="M116 86H12c-3.309 0-6-2.691-6-6V26c0-3.309 2.691-6 6-6h104c3.309 0 6 2.691 6 6v54c0 3.309-2.691 6-6 6zM12 24c-1.103 0-2 .897-2 2v54c0 1.103.897 2 2 2h104c1.103 0 2-.897 2-2V26c0-1.103-.897-2-2-2H12zM78 108.709H50a2 2 0 0 1 0-4h28a2 2 0 0 1 0 4z"
          ></path>
          <path fill="#505070" d="M70 107h-4V86h-4v21h-4V82h12z"></path>
        </svg>